<?xml version="1.0" encoding="UTF-8" standalone="no"?>
<!DOCTYPE svg PUBLIC "-//W3C//DTD SVG 1.1//EN" "http://www.w3.org/Graphics/SVG/1.1/DTD/svg11.dtd">
<svg width="100%" height="100%" viewBox="0 0 1024 1024" version="1.1" xmlns="http://www.w3.org/2000/svg" xmlns:xlink="http://www.w3.org/1999/xlink" xml:space="preserve" xmlns:serif="http://www.serif.com/" style="fill-rule:evenodd;clip-rule:evenodd;stroke-linejoin:round;stroke-miterlimit:2;">
    <circle cx="512" cy="512" r="512" style="fill:rgb(21,21,21);"/>
    <g transform="matrix(0.757001,0,0,0.757001,124.416,340.741)">
        <path d="M960,255.894C960,291.158 931.37,319.787 896.106,319.787L127.894,319.787C92.63,319.787 64,291.158 64,255.894C64,220.63 92.63,192 127.894,192L896.106,192C931.37,192 960,220.63 960,255.894Z" style="fill:rgb(182,78,0);"/>
        <clipPath id="_clip1">
            <path d="M960,255.894C960,291.158 931.37,319.787 896.106,319.787L127.894,319.787C92.63,319.787 64,291.158 64,255.894C64,220.63 92.63,192 127.894,192L896.106,192C931.37,192 960,220.63 960,255.894Z"/>
        </clipPath>
        <g clip-path="url(#_clip1)">
            <g transform="matrix(0.866025,0.5,-0.5,0.866025,308.996,-268.443)">
                <rect x="119.141" y="357.765" width="26.127" height="314.616" style="fill:rgb(82,39,6);"/>
            </g>
            <g transform="matrix(0.866025,0.5,-0.5,0.866025,439.548,-268.443)">
                <rect x="119.141" y="357.765" width="26.127" height="314.616" style="fill:rgb(82,39,6);"/>
            </g>
            <g transform="matrix(0.866025,0.5,-0.5,0.866025,570.099,-268.443)">
                <rect x="119.141" y="357.765" width="26.127" height="314.616" style="fill:rgb(82,39,6);"/>
            </g>
            <g transform="matrix(0.866025,0.5,-0.5,0.866025,700.651,-268.443)">
                <rect x="119.141" y="357.765" width="26.127" height="314.616" style="fill:rgb(82,39,6);"/>
            </g>
            <g transform="matrix(0.866025,0.5,-0.5,0.866025,831.202,-268.443)">
                <rect x="119.141" y="357.765" width="26.127" height="314.616" style="fill:rgb(82,39,6);"/>
            </g>
            <g transform="matrix(0.866025,0.5,-0.5,0.866025,961.754,-268.443)">
                <rect x="119.141" y="357.765" width="26.127" height="314.616" style="fill:rgb(82,39,6);"/>
            </g>
        </g>
    </g>
    <g transform="matrix(0.757001,0,0,0.757001,124.416,178.637)">
        <path d="M960,282.858C960,318.122 931.37,319.787 896.106,319.787L127.894,319.787C92.63,319.787 64,318.122 64,282.858C64,247.594 92.63,192 127.894,192C127.894,192 383.965,132.679 512,132.679C640.035,132.679 896.106,192 896.106,192C931.37,192 960,247.594 960,282.858Z" style="fill:rgb(248,189,60);"/>
    </g>
    <g transform="matrix(-0.757001,0,0,-0.757001,899.584,890.27)">
        <path d="M960,282.858C960,318.122 931.37,319.787 896.106,319.787L127.894,319.787C92.63,319.787 64,318.122 64,282.858C64,247.594 92.63,192 127.894,192L896.106,192C931.37,192 960,247.594 960,282.858Z" style="fill:rgb(248,189,60);"/>
    </g>
</svg>
